<?xml version="1.0" encoding="UTF-8"?>
<svg id="uuid-ddd7bea5-9f56-444d-9afb-bd3f5f59640e" data-name="레이어 1" xmlns="http://www.w3.org/2000/svg" viewBox="0 0 100 32">
  <defs>
    <style>
      .uuid-6a630c51-6791-4f8d-aa6a-0e1bc1de263e {
        fill: #fff;
        stroke-width: 0px;
      }
    </style>
  </defs>
  <path class="uuid-6a630c51-6791-4f8d-aa6a-0e1bc1de263e" d="M22.95,24.89c-.09.31-.14.61-.14.92,0,.26.03.48.1.65.07.18.15.32.23.42.08.1.13.18.16.23.23.23.35.47.35.7,0,.05-.02.16-.07.35-.09.33-.3.56-.62.69s-.8.19-1.46.19h-8.34c-.49,0-.88-.08-1.14-.25-.27-.16-.41-.39-.41-.67,0-.14.04-.29.11-.46.07-.19.17-.34.3-.44.13-.1.31-.23.55-.37.38-.21.68-.45.92-.7s.43-.68.6-1.27l.92-3.03h-5.49l-.95,2.01c-.4.87-.6,1.55-.6,2.04,0,.28.05.51.14.69.09.18.23.36.42.55.16.19.27.35.33.48s.06.3.02.51c-.09.35-.29.59-.58.72s-.76.19-1.39.19H1.65c-.54,0-.95-.1-1.23-.3-.28-.2-.42-.46-.42-.79,0-.38.14-.67.41-.9.27-.22.67-.46,1.21-.72.7-.35,1.27-.7,1.69-1.04.42-.34.78-.81,1.09-1.43l6.27-12.99c.96-2.02,2.09-3.48,3.4-4.38,1.3-.9,3.02-1.35,5.16-1.35,2.39,0,4.25.49,5.56,1.46,1.31.97,1.97,2.33,1.97,4.06,0,.73-.12,1.48-.35,2.25l-3.45,11.97ZM16.05,18.34l1.87-6.19c.09-.28.14-.58.14-.88,0-.45-.12-.78-.37-1s-.59-.34-1.04-.34c-.56,0-1.04.16-1.44.49-.4.33-.8.92-1.2,1.76l-2.89,6.16h4.93Z"/>
  <path class="uuid-6a630c51-6791-4f8d-aa6a-0e1bc1de263e" d="M42.56,10.86c1.08.41,1.92.98,2.52,1.69.6.72.9,1.51.9,2.38,0,.94-.32,1.71-.97,2.32s-1.52.92-2.62.92-2.01-.29-2.64-.86c-.63-.57-.95-1.35-.95-2.34,0-.47.07-.96.21-1.48-.99.26-1.86.77-2.62,1.53-.76.76-1.28,1.77-1.54,3.01-.14.7-.21,1.34-.21,1.9,0,1.27.35,2.23,1.05,2.89.7.66,1.71.99,3.02.99.75,0,1.4-.08,1.94-.23.54-.15,1.09-.36,1.66-.62.47-.23.81-.35,1.02-.35.14,0,.23.03.28.09s.07.18.07.37c.02.87-.34,1.78-1.08,2.73-.74.95-1.76,1.75-3.06,2.39-1.31.65-2.77.97-4.38.97s-3.19-.31-4.49-.93c-1.3-.62-2.31-1.51-3.03-2.67-.72-1.16-1.07-2.52-1.07-4.07,0-.73.09-1.54.28-2.43.63-2.91,2.04-5.1,4.21-6.58s4.74-2.22,7.73-2.22c1.43,0,2.68.21,3.76.62Z"/>
  <path class="uuid-6a630c51-6791-4f8d-aa6a-0e1bc1de263e" d="M61.63,10.86c1.08.41,1.92.98,2.52,1.69.6.72.9,1.51.9,2.38,0,.94-.32,1.71-.97,2.32-.64.61-1.52.92-2.62.92s-2.01-.29-2.64-.86c-.63-.57-.95-1.35-.95-2.34,0-.47.07-.96.21-1.48-.99.26-1.86.77-2.62,1.53-.76.76-1.27,1.77-1.53,3.01-.14.7-.21,1.34-.21,1.9,0,1.27.35,2.23,1.05,2.89.7.66,1.71.99,3.03.99.75,0,1.4-.08,1.94-.23.54-.15,1.09-.36,1.65-.62.47-.23.81-.35,1.02-.35.14,0,.23.03.28.09.05.06.07.18.07.37.02.87-.34,1.78-1.07,2.73-.74.95-1.76,1.75-3.06,2.39-1.3.65-2.76.97-4.38.97s-3.19-.31-4.49-.93c-1.3-.62-2.31-1.51-3.03-2.67s-1.07-2.52-1.07-4.07c0-.73.09-1.54.28-2.43.63-2.91,2.04-5.1,4.21-6.58,2.17-1.48,4.75-2.22,7.73-2.22,1.43,0,2.68.21,3.76.62Z"/>
  <path class="uuid-6a630c51-6791-4f8d-aa6a-0e1bc1de263e" d="M76.42,11.2c.63.52.95,1.22.95,2.11,0,.54-.08,1.06-.25,1.55l-3.24,10.52c-.07.28-.1.53-.1.74,0,.31.06.55.17.72s.28.35.49.51c.16.16.28.3.35.41s.08.24.03.41c-.12.31-.35.53-.7.67-.35.14-.89.21-1.62.21h-8.02c-.61,0-1.06-.1-1.34-.3-.28-.2-.38-.46-.28-.79.09-.28.34-.53.74-.74.35-.19.65-.41.88-.67.23-.26.43-.67.6-1.23l3.07-10.17c.07-.21.1-.39.1-.53,0-.26-.06-.46-.17-.62s-.3-.31-.53-.48c-.23-.19-.4-.35-.49-.49-.09-.14-.11-.33-.04-.56.14-.54.88-1.02,2.22-1.43,1.34-.41,2.74-.62,4.19-.62,1.36,0,2.36.26,2.99.77ZM78.07,3.54c.61.6.91,1.33.91,2.2,0,.61-.16,1.21-.48,1.79-.32.59-.76,1.06-1.34,1.43-.57.37-1.21.55-1.92.55-.89,0-1.64-.3-2.24-.9-.6-.6-.91-1.34-.93-2.24,0-.59.15-1.17.46-1.74.3-.58.74-1.05,1.3-1.43.56-.38,1.21-.56,1.94-.56.92,0,1.68.3,2.29.9Z"/>
  <path class="uuid-6a630c51-6791-4f8d-aa6a-0e1bc1de263e" d="M97.73,12.36c1.52,1.29,2.27,2.98,2.27,5.07,0,.7-.09,1.49-.28,2.36-.44,1.92-1.28,3.61-2.5,5.05-1.22,1.44-2.72,2.56-4.49,3.34-1.77.79-3.69,1.18-5.75,1.18-3.26,0-5.67-.65-7.23-1.95-1.56-1.3-2.34-3.03-2.34-5.19,0-.73.09-1.54.28-2.43.45-1.83,1.3-3.46,2.55-4.88s2.79-2.52,4.61-3.31,3.76-1.18,5.82-1.18c3.19,0,5.55.65,7.06,1.94ZM89,14.87c-.55.88-1.2,2.54-1.95,4.98s-1.13,4.15-1.13,5.14c0,.52.08.86.25,1.04.16.18.39.26.67.26.49.05,1-.38,1.53-1.27.53-.89,1.19-2.63,1.99-5.21.73-2.28,1.09-3.93,1.09-4.96,0-.49-.08-.83-.23-1.02s-.37-.28-.65-.28c-.49,0-1.02.44-1.57,1.32Z"/>
</svg>